<?xml version="1.0" standalone="no"?><!DOCTYPE svg PUBLIC "-//W3C//DTD SVG 1.1//EN" "http://www.w3.org/Graphics/SVG/1.1/DTD/svg11.dtd"><svg t="1670734131371" class="icon" viewBox="0 0 1024 1024" version="1.1" xmlns="http://www.w3.org/2000/svg" p-id="4069" xmlns:xlink="http://www.w3.org/1999/xlink" width="200" height="200"><path d="M992 896H32a32 32 0 0 0 0 64h32c96 0 160.496 55.248 160.496 55.248 6.288 5.568 18.96 8.752 31.504 8.752h480c13.504 0 21.872-4.208 32-8 0 0 96-56 192-56h32a32 32 0 0 0 0-64z" fill="#434854" p-id="4070"></path><path d="M960 960H64c34.096 0 64.112 7.008 88.784 16h710.048c29.616-8.992 63.36-16 97.168-16z" opacity=".3" p-id="4071"></path><path d="M640 224.992c0-96-80-224-128-224s-128 128-128 224a128 128 0 0 0 256 0z" fill="#EF4D4D" p-id="4072"></path><path d="M688 384.992H320a16 16 0 0 0-16 16v176a16 16 0 0 0 16 16V896h384V400.992a16 16 0 0 0-16-16z" fill="#84BF56" p-id="4073"></path><path d="M512.048 160.992c-17.984 0-47.952 81.456-47.952 142.544 0 15.728 2.752 30.304 7.296 42.768 12.784 4.272 26.4 6.688 40.608 6.688a127.36 127.36 0 0 0 40.704-6.72A125.248 125.248 0 0 0 560 303.536c0-61.104-29.968-142.544-47.952-142.544z" fill="#EACA44" p-id="4074"></path><path d="M688 384.992h-48V896h64V400.992a16 16 0 0 0-16-16zM416 512.992a16 16 0 1 0 32 0v-128h-32v128zM432 560.992a16 16 0 0 0-16 16v48a16 16 0 1 0 32 0v-48a16 16 0 0 0-16-16zM304 400.992v176a16 16 0 1 0 32 0v-192h-16a16 16 0 0 0-16 16z" opacity=".15" p-id="4075"></path><path d="M320 880h384v16H320z" opacity=".1" p-id="4076"></path></svg>